M48
;Layer_Color=9474304
;FILE_FORMAT=2:5
INCH,LZ
;TYPE=PLATED
T1F00S00C0.01700
T2F00S00C0.03150
T3F00S00C0.03937
T4F00S00C0.04331
T5F00S00C0.05118
%
T01
X00245Y0152063
X0024375Y019375
X0028125Y02075
X00335Y02145
X0022Y02695
X0Y02675
X00045Y02625
X0064375Y026375
X0077625Y025875
X0093125Y025125
X008625Y02425
X0109375Y024125
X0104375Y02325
X0115
X0123125Y0241875
X0138Y0239
X0135625Y0229375
X01375Y02075
X013Y02
X0115625Y019375
X0109525Y02039
X010375Y0216875
X0073045
X0061875
X0048125Y021875
X004625Y02075
X003875Y02
X005375Y01925
X00675Y0201875
X0065Y02375
X01245Y0264375
X0146Y02475
X014875Y021875
X0164375Y0219375
X016625Y02075
X015875Y02
X0174375Y0195625
X01775Y018
X0186875Y0186427
X01775Y016
X0193125Y0152052
X0144375Y019375
X0186875Y02595
X01945Y02545
X0194375Y02655
X0048125Y0151875
X0206875Y0165177
X02075Y0178927
X02021Y0192077
X021375Y0198125
X0226339Y0196879
X023625Y0192052
X02375Y018
X0246875Y0186427
X02621Y0192077
X02745Y0196
X0275Y0208
X0269Y02045
X0285
X02865Y0196902
X0295Y0194375
X02975Y018
X0306875Y0186427
X03221Y0192077
X0333125Y0196875
X034625Y0197052
X03445Y02115
X0336Y02135
X03245
Y0207
Y02205
X0315Y02215
X0313Y0228
X03195Y0238
X03265
X0323Y02465
X0319Y02505
X0314Y02535
X031263Y0268997
X0334Y0269
X0339Y02455
X0346
X0349Y0235
X034Y02305
X0299Y0219
X0289Y022
X028163Y0221997
X0275Y0222
X027
X0264
X02636Y02166
X02575Y02145
X02515
X0250895Y0220315
Y022739
X02535Y0232
Y0239
X02525Y0246
X024777Y024969
X024152Y024344
X0236695Y0230115
X0244645Y0215315
X027Y0237
X0277Y0236
X0282062Y0235997
X028Y02435
Y02495
X02725
X02665Y02465
X0267Y02565
X0269Y02615
X02745
X02735Y0267
X02675
X028113Y0266997
X0291003
X02935Y0254
X02895Y025
X0286Y0246
X025113Y0259997
X0250895Y026844
X023527Y0265315
X0235895Y025719
X022163Y0262997
X0209375Y0266
X0201875Y026
X02225Y0152052
X02375Y016
X0253125Y0152229
X02675Y0164552
Y0178927
X02825Y0152229
X02975Y016
X0313125Y0152052
X0326875Y0163927
X03275Y0178927
X03425Y0152052
X03045Y02074
X0352Y02095
X036Y0208
X0369Y0205
X0371875Y0198302
X0378975Y0192077
X0390625Y01975
X04025
X0418125Y0201875
X046148Y02039
X046375Y0195
X0475625Y019375
X047Y0206875
X0466875Y0223125
X0455Y02225
X0455705Y0216875
X04645Y0239
X04715
X04805Y02345
X04885Y0233
Y02415
X04905Y02555
X04885Y0216
X0506
X04975Y02075
X049Y02
X0504375Y019375
X049875Y0179375
X04825Y0151875
X04025Y0152052
X0373125
X03575Y016
Y018
X036375Y0186427
X0358125Y0196875
X0358Y0231
X03665
X0379
X0389Y02365
X039Y02455
X0383
X03775Y0251
X0368Y02455
X0356Y0251
Y0269
X0378
X04
X04215Y02685
X04175Y0251
X0412Y02455
X0405
X0439Y0251
X0446Y0256
X0521Y02555
X0523Y02415
Y0233
Y0216
X05255Y02075
X05315Y0202
X051875Y02
X0508Y02075
X0543Y02075
X0552Y0202
X05635Y02075
X0573Y0202
X0576875Y0197052
X0586339
X05845Y02075
X0595Y0202
X06065Y02075
X0611875Y0198302
X0617Y0202
X0618975Y0192077
X062875Y0198125
X0636875Y0197052
X064875Y0199375
X0649375Y019375
X0659375Y0200625
Y0214375
X0644Y02095
X0633Y0215
X06285Y02075
Y02245
X06305Y023
Y02365
X06085
Y023
X06065Y02245
X05845
X05865Y023
Y02365
X05655
Y023
X05635Y02245
X0543
X0545Y023
Y02365
X0546875Y0186427
Y0180802
X05375Y018
Y016
X0553125Y0152052
X05825
X05975Y016
Y018
X060375Y0186427
X0613125Y0152052
X06425
X065Y0232
X0652Y02375
Y0244
X06605Y02375
Y026
X05621Y0192077
X0510625Y0163125
X0515625Y0151875
X0665Y0216875
X06695Y02415
X06785
X06965
X07025Y0247
X0702Y02535
X06965Y0264
X06885Y02635
X06785Y0264
X07195Y0265
Y0247
X07295Y02415
X07247Y02329
X0716875Y0226875
X0706875Y0225625
X0695705Y0216875
X070148Y02039
X0708125Y019125
X0715625Y019375
X0719375Y02075
X073Y02
X07375Y02075
X0738125Y0216875
X074125Y0221813
X07368Y0226875
X0754375Y0219375
X074875Y0211875
Y0206875
X0755625Y020375
X075625Y01975
X07621Y0192077
X07675Y0178927
X0766875Y0163927
X0753125Y0152052
X0735625Y0155
X0738125Y01775
X0746875Y0186427
X0743125Y0201875
X07725Y020625
X0777281Y0206032
X07875Y02075
X0789Y0213063
Y0221188
X080125Y0230625
X07975Y02415
X07875Y0247
Y0265
X081
Y0247
X081375Y023375
X0818125Y0205
X0813125Y0196875
X0818975Y0192077
X080375Y0186427
X080125Y0196875
X0784375Y01975
X079625Y0180802
X07975Y0164552
X07825Y0152052
X0813125
X077375Y0230625
X0775Y02415
X07645Y0247
X0769Y0258
X07645Y0265
X0742
Y0247
X0752Y02415
X08245Y02495
X08405Y02505
X08515Y0250625
X0863Y0251
X0874Y0251125
X0868Y0258625
X0857Y02585
X08455Y0258125
X08345Y0258
X084Y02655
X0851Y0265625
X08625Y0266
X08735Y0266125
X0896Y027
X09042Y02578
X08994Y02332
X0891875Y023375
X09115Y0233
X09225Y0233125
X09475Y023375
X09525Y02225
X0941875
X09375Y02075
X093Y02
X0919375Y02075
X0910625Y021125
X090148Y02039
X0895705Y0216875
X09042Y02245
X090875Y0191875
X0915625Y019375
X09375Y018
X0946875Y0186427
X095625Y01975
X09525Y020125
X09621Y0192077
X09675Y0178927
X0966875Y0163927
X0953125Y0152052
X09375Y016
X097375Y020125
X096Y0226875
X0865Y0216875
X084625Y0223125
X0841875Y02025
X083Y019625
X08425Y0152052
X09825
X09975Y016
Y018
Y0190625
X100375Y0186427
X1013125Y0196875
X1018975Y0192077
X1029375Y019625
X1021875Y020625
X103375Y021
X104375Y0215
X105125Y020125
X105Y01875
X10475Y0180625
X10425Y0152052
X1013125
X0984375Y01975
X0983125Y0205625
X098375Y0230625
X10177Y02314
X104125Y0238125
X1049316Y0242559
X104875Y02525
X1055Y025375
Y026
X10294Y02564
X1031875Y0266875
X10105Y02575
X1085Y0175625
X10825Y02725
X1060625Y0273125
X1065625Y028375
Y03125
X0984
X0974
X0964
X0954
X0944
X0934
X0924
X0914
X0904
X0894
X0884
X0874
X0864
X0854
X0844
X0834
X0824
X0834Y0288
X0845Y0288125
X084Y02805
X0851Y0280625
X08565Y02735
X08675Y0273625
X0845Y0273125
X0834Y0273
X08885Y0278
X0904Y0278125
X08985Y02855
X09095Y0285625
X09035Y0293125
X08925Y0293
X09285
X09395Y0293125
X09345Y02855
X09455Y0285625
X094Y0278125
X09525Y0279
X09585Y02715
X0946Y0270625
X09225Y02715
X091Y0270625
X09165Y0279
X081Y0274
X0808Y02885
X07855
X07875Y0274
X07645
X07625Y02885
X074
X0742Y0274
X07195
X0724125Y0283
X0702294Y02761
X0705Y03125
X0695
X0685
X0675
X0665
X0715
X0725
X0735
X0745
X0755
X0765
X0775
X0785
X0794
X0804
X0814
X0655
X0645
X0635
X0625
X0615
X0605
X0595
X05865
X05775
X05675
X05575
X05475
X05375
X05275
X05175
X05075
X04975
X04875
X04775
X04675
X04575
X04475
X04375
X04275
X04175
X04075
X03975
X03875
X03785
X03685
X03585
X03515Y0287
X0356Y0278
X0378
X03735Y0287
X03955
X04Y0278
X04215
X04195Y029
X0335Y02925
X03265Y02945
X0321Y029
X03065Y02905
Y02835
X0299Y0281
X02885Y029
X02855Y0296
X027463Y0296997
X027813Y0283497
X0263Y02735
X025777Y027219
X0249645Y027969
X0257145Y0290315
X024113Y0289997
X02345Y029
X02285
X02215
X0215
X021813Y0275497
X02085Y02785
X0201Y02725
X0198875Y0298
X01985Y03125
X02085
X02185
X02285
X02385
X02485
X02585
X02685
X02785
X02885
X02985
X03085
X03185
X03285
X03385
X03485
X0334Y0278
X0325Y02745
X03025Y0304
X02975Y02995
X023213Y0275997
X0191375Y0292
X0184Y02865
X0183875Y02975
X018Y030375
Y03125
X01885
X01905Y03045
X0176375Y02915
X01765Y02805
X017Y03125
X016
X015
X014
X01165Y03035
X01065
X00965
X01145Y0291
X0053875Y0298063
Y0306188
X0028875Y0301188
X0028Y0289563
X002Y02845
X0011916Y0285084
X000486Y027264
X0Y0293125
X0005Y0301
X0Y03125
X00225
T02
X0844429Y0023221
X0850571Y0042906
X088375Y009125
X068375
X0650571Y0042906
X0644429Y0023221
X0404429
X0410571Y0042906
X044375Y009125
X0091795
X0064321Y0089218
X0058179Y0069533
X-0005244Y0212756
X00335Y0263437
X00415Y0256
X0070625Y025375
X0091795Y0116046
X044375
X068375
X088375
X01305Y0305
T03
X0982264Y0065847
Y0085532
Y0105217
X1012736
Y0085532
Y0065847
X1042264
Y0085532
Y0105217
X0952736
Y0085532
Y0065847
X0842264
Y0085532
Y0105217
X0812736
Y0085532
Y0065847
X0782264
Y0085532
Y0105217
X0752736
Y0085532
Y0065847
X0642264
Y0085532
Y0105217
X0612736
Y0085532
Y0065847
X0582264
Y0085532
Y0105217
X0552736
Y0085532
Y0065847
X0402264
Y0085532
Y0105217
X0372736
Y0085532
Y0065847
X0342264
Y0085532
Y0105217
X0312736
Y0085532
Y0065847
X0282264
Y0085532
Y0105217
X0252736
Y0085532
Y0065847
X0222264
Y0085532
Y0105217
X0192736
Y0085532
Y0065847
X0003405Y0105827
X-0008405
Y0117638
X0003405
Y0188504
X-0008405
Y0200315
X0003405
X0192736Y0164272
X0222264
X0252736
X0282264
X0312736
X0342264
X0372736
X0402264
X0552736
X0582264
X0612736
X0642264
X0752736
X0782264
X0812736
X0842264
X0952736
X0982264
X1012736
X1042264
T04
X05125Y0272087
X05225
X05325
X05425
X05525
X05625
X05725
X05825
X05925
Y0282087
X05825
X05725
X05625
X05525
X05425
X05325
X05225
X05125
X05025
Y0272087
X04925
Y0282087
X04825
Y0272087
X04725
Y0282087
T05
X0981279Y-002437
Y000563
X104128
Y-002437
X095128
X0931279
X0911279
X089128
X087128
X084128
Y000563
X087128
Y0015
X089128Y000563
X0911279
Y0015
X0931279Y000563
X095128
Y0015
Y0045
X0911279
X087128
X0922224Y0078661
Y0098347
X0722224
Y0078661
X0711279Y0045
Y0015
Y000563
X069128
X0671279
Y0015
Y0045
Y-002437
X069128
X0711279
X073128
X0751279
Y000563
Y0015
X073128Y000563
X078128
Y-002437
X0751279Y0045
X064128Y000563
Y-002437
X058128
X0551279
X053128
Y000563
X0551279
Y0015
Y0045
X0522224Y0078661
Y0098347
X058128Y000563
X049128
X0471279
Y0015
X0451279Y000563
X043128
Y0015
Y0045
X0471279
X0482224Y0078661
Y0098347
X049128Y-002437
X0471279
X0451279
X043128
X0401279
Y000563
X034128
Y-002437
X0281279
Y000563
X022128
Y-002437
X0191279
X017128
Y000563
X0191279
Y0015
Y0045
X0162224Y0078661
Y0098347
X0122224
Y0078661
X0111279Y0045
Y0015
Y000563
X009128
X007128
Y0015
X0051279Y000563
Y-002437
X007128
X009128
X0111279
X013128
Y000563
X007128Y0045
X0042224Y0078661
Y0098347
X003128Y0045
Y0015
Y000563
Y-002437
X0042224Y0118032
Y0161732
Y0176496
X0122224
Y0161732
X0162224
Y0176496
Y0118032
X0122224
X0482224
Y0161732
Y0176496
X0522224
Y0161732
Y0118032
X0722224
Y0161732
Y0176496
X0922224
Y0161732
Y0118032
M30
