*
%FSLAX26Y26*%
%MOIN*%
%ADD10C,0.005906*%
%IPPOS*%
%LNs109698l04a0.gko*%
%LPD*%
G75*
G54D10*
X11178900Y2245280D03*
Y2284650D02*
X11174529Y2284159D01*
X11170376Y2282709D01*
X11166649Y2280373D01*
X11163533Y2277268D01*
X11161185Y2273549D01*
X11159721Y2269401D01*
X11159215Y2265032D01*
X11159692Y2260659D01*
X11161127Y2256502D01*
X11163450Y2252766D01*
X11166545Y2249640D01*
X11170256Y2247280D01*
X11174399Y2245802D01*
X11178766Y2245281D01*
X11178900Y2245280D01*
Y2245280D02*
X11493700D01*
Y0D01*
X393700D01*
Y3503940D01*
X11493700D01*
Y2284650D01*
X11178900D01*
Y5749220D03*
Y5788590D02*
X11174529Y5788099D01*
X11170376Y5786649D01*
X11166649Y5784313D01*
X11163533Y5781208D01*
X11161185Y5777489D01*
X11159721Y5773341D01*
X11159215Y5768972D01*
X11159692Y5764599D01*
X11161127Y5760442D01*
X11163450Y5756706D01*
X11166545Y5753580D01*
X11170256Y5751219D01*
X11174399Y5749742D01*
X11178766Y5749220D01*
X11178900Y5749220D01*
Y5749220D02*
X11493700D01*
Y3503940D01*
X393700D01*
Y7007880D01*
X11493700D01*
Y5788590D01*
X11178900D01*
Y9253160D03*
Y9292530D02*
X11174529Y9292039D01*
X11170376Y9290589D01*
X11166649Y9288253D01*
X11163533Y9285148D01*
X11161185Y9281429D01*
X11159721Y9277281D01*
X11159215Y9272912D01*
X11159692Y9268539D01*
X11161127Y9264381D01*
X11163450Y9260646D01*
X11166545Y9257520D01*
X11170256Y9255159D01*
X11174399Y9253681D01*
X11178766Y9253160D01*
X11178900Y9253160D01*
Y9253160D02*
X11493700D01*
Y7007880D01*
X393700D01*
Y10511820D01*
X11493700D01*
Y9292530D01*
X11178900D01*
Y12757100D03*
Y12796470D02*
X11174529Y12795979D01*
X11170376Y12794529D01*
X11166649Y12792193D01*
X11163533Y12789088D01*
X11161185Y12785369D01*
X11159721Y12781221D01*
X11159215Y12776852D01*
X11159692Y12772479D01*
X11161127Y12768321D01*
X11163450Y12764586D01*
X11166545Y12761460D01*
X11170256Y12759099D01*
X11174399Y12757621D01*
X11178766Y12757100D01*
X11178900Y12757100D01*
Y12757100D02*
X11493700D01*
Y10511820D01*
X393700D01*
Y14015760D01*
X11493700D01*
Y12796470D01*
X11178900D01*
X0Y0D02*
X11887400D01*
X0Y14015760D02*
X11887400D01*
Y0D01*
X0Y14015760D02*
Y0D01*
X11493700Y10511820D02*
X11887400D01*
X11493700Y7007880D02*
X11887400D01*
X11493700Y3503940D02*
X11887400D01*
X393700D02*
X0D01*
X393700Y7007880D02*
X0D01*
X393700Y10511820D02*
X0D01*
X11493700Y2245300D02*
X11498073Y2245791D01*
X11502227Y2247241D01*
X11505956Y2249577D01*
X11509074Y2252682D01*
X11511425Y2256402D01*
X11512891Y2260551D01*
X11513400Y2264921D01*
X11512926Y2269296D01*
X11511493Y2273456D01*
X11509172Y2277195D01*
X11506079Y2280325D01*
X11502369Y2282690D01*
X11498226Y2284173D01*
X11493857Y2284699D01*
X11493700Y2284700D01*
Y5749240D02*
X11498073Y5749731D01*
X11502227Y5751181D01*
X11505956Y5753517D01*
X11509074Y5756622D01*
X11511425Y5760342D01*
X11512891Y5764491D01*
X11513400Y5768861D01*
X11512926Y5773236D01*
X11511493Y5777396D01*
X11509172Y5781135D01*
X11506079Y5784265D01*
X11502369Y5786630D01*
X11498226Y5788113D01*
X11493857Y5788639D01*
X11493700Y5788640D01*
Y9253180D02*
X11498073Y9253671D01*
X11502227Y9255121D01*
X11505956Y9257457D01*
X11509074Y9260562D01*
X11511425Y9264282D01*
X11512891Y9268431D01*
X11513400Y9272801D01*
X11512926Y9277176D01*
X11511493Y9281336D01*
X11509172Y9285075D01*
X11506079Y9288205D01*
X11502369Y9290570D01*
X11498226Y9292053D01*
X11493857Y9292579D01*
X11493700Y9292580D01*
Y12757120D02*
X11498073Y12757611D01*
X11502227Y12759061D01*
X11505956Y12761397D01*
X11509074Y12764502D01*
X11511425Y12768222D01*
X11512891Y12772371D01*
X11513400Y12776741D01*
X11512926Y12781116D01*
X11511493Y12785276D01*
X11509172Y12789015D01*
X11506079Y12792145D01*
X11502369Y12794510D01*
X11498226Y12795993D01*
X11493857Y12796519D01*
X11493700Y12796520D01*
M02*
